# xmcd
#
# Track frame offsets: 
#        150
#        20147
#        55371
#        86390
#        116711
#        134421
#        154977
#        182422
#        202303
#        222369
#        239169
#
# Disc length: 3458 seconds
#
# Revision: 1
# Processed by: cddbd v1.5.2PL0 Copyright (c) Steve Scherf et al.
# Submitted via: ExactAudioCopy v1.0b3
#
DISCID=aa0d800b
DTITLE=Various Artist - Contemporary Blues Interpret Eric Clapton
DYEAR=2008
DGENRE=Blues
TTITLE0=Miss You - Larry McCray
TTITLE1=Layla - Eric Gales and Derek Trucks
TTITLE2=Had To Cry Today - Joe Bonamassa
TTITLE3=Old Love - Otis Rush
TTITLE4=Before You Accuse Me - Bo Diddley
TTITLE5=Blues Power - Koko Taylor
TTITLE6=Lay Down Sally - Carl Weathersby
TTITLE7=Wonderful Tonight - Otis Clay
TTITLE8=Too Bad - Pinetop Perkins
TTITLE9=Crossroads - Honeyboy Edwards
TTITLE10=Tears In Heaven - Ann Peebles
EXTD=
EXTT0=
EXTT1=
EXTT2=
EXTT3=
EXTT4=
EXTT5=
EXTT6=
EXTT7=
EXTT8=
EXTT9=
EXTT10=
PLAYORDER=
